# xmcd
#
# Track frame offsets:
#	150
#	15288
#	29566
#	45489
#	57530
#	72962
#	91823
#	105160
#	114149
#	129730
#	149594
#	164366
#	181734
#	200307
#	217220
#	232167
#
# Disc length: 3304 seconds
#
# Revision: 1
# Processed by: cddbd v1.5PL3 Copyright (c) Steve Scherf et al.
# Submitted via: audiograbber 1.83.01
#
DISCID=dd0ce610
DTITLE=Various Artist - Автомузыка Dance. (2004)
DYEAR=1900
DGENRE=
TTITLE0=Da Buzz. - Can You Feel The Same Way Too.
TTITLE1=Paul Masterson. - Stars.
TTITLE2=Stive Miller Band. - Abracadabra.
TTITLE3=Mirro. - Letkiss. (Rmx)
TTITLE4=Divine Inspiration. - The Way.
TTITLE5=Jurgen Vries Feat. - The Opera.
TTITLE6=Kylie Minogue. - Confide In Me.
TTITLE7=Los Lobos and Antonio Banderas. - Cancion Del Mariachi.
TTITLE8=Erica. - Relations.
TTITLE9=Skylab. - Ocean.
TTITLE10=Soscia. - Ritmo Sensuale.
TTITLE11=DJJD. - Grammy.
TTITLE12=Laser Dans. - Power Run.
TTITLE13=Cher. - All Or Nothing.
TTITLE14=CC. - Space.
TTITLE15=Jennifer Lopez. - Play.
EXTD=
EXTT0=
EXTT1=
EXTT2=
EXTT3=
EXTT4=
EXTT5=
EXTT6=
EXTT7=
EXTT8=
EXTT9=
EXTT10=
EXTT11=
EXTT12=
EXTT13=
EXTT14=
EXTT15=
PLAYORDER=
